<svg width="206" height="77" viewBox="0 0 206 77" fill="none" xmlns="http://www.w3.org/2000/svg">
<mask id="path-1-outside-1_13_177" maskUnits="userSpaceOnUse" x="1" y="15" width="205" height="47" fill="black">
<rect fill="white" x="1" y="15" width="205" height="47"/>
<path d="M7.15828 59.16L37.8783 16.32H39.2583L41.0583 59.16H46.3383L46.0983 60H27.3783L27.6183 59.16H33.0783L32.3583 42.78H20.1183L8.35828 59.16H13.3383L13.0983 60H2.83828L3.07828 59.16H7.15828ZM20.7183 41.94H32.3583L31.6983 26.94H31.5783L20.7183 41.94ZM55.9748 34.44H60.2348V38.7H64.4948V42.96H60.2348V60H55.9748V34.44ZM73.0148 38.7H64.4948V34.44H73.0148V38.7ZM89.843 33.48C92.543 33.48 96.323 35.16 96.323 38.46C96.323 41.7 93.683 42.96 92.123 42.96C90.803 42.96 89.783 42.24 89.783 40.74C89.783 38.58 92.003 37.74 92.003 35.88C92.003 34.92 91.103 34.26 89.483 34.26C83.243 34.26 78.683 48.6 78.683 54.66C78.683 57.84 80.183 59.7 83.243 59.7C87.983 59.7 90.983 56.22 92.903 53.46L93.623 53.94C91.643 56.88 88.283 60.78 82.283 60.78C76.763 60.78 72.503 57.18 72.503 51.66C72.503 44.1 80.483 33.48 89.843 33.48ZM102.498 25.92H106.758V42.96H111.018V47.22H106.758V60H102.498V25.92ZM111.018 38.7H119.538V42.96H111.018V38.7ZM123.798 60H119.538V42.96H123.798V60ZM136.583 34.44H132.323V25.92H136.583V34.44ZM136.583 38.7V60H132.323V38.7H136.583ZM145.096 42.96V34.44H149.356V42.96H145.096ZM166.396 42.96V34.44H170.656V42.96H166.396ZM149.356 55.74V42.96H153.616V55.74H149.356ZM166.396 51.48H162.136V42.96H166.396V51.48ZM162.136 55.74H157.876V51.48H162.136V55.74ZM157.876 60H153.616V55.74H157.876V60ZM183.458 34.44H196.238V38.7H183.458V34.44ZM196.238 42.96V47.22H183.458V55.74H179.198V38.7H183.458V42.96H196.238ZM200.498 38.7V42.96H196.238V38.7H200.498ZM200.498 55.74V51.48H204.758V55.74H200.498ZM200.498 60H183.458V55.74H200.498V60Z"/>
</mask>
<path d="M7.15828 59.16L37.8783 16.32H39.2583L41.0583 59.16H46.3383L46.0983 60H27.3783L27.6183 59.16H33.0783L32.3583 42.78H20.1183L8.35828 59.16H13.3383L13.0983 60H2.83828L3.07828 59.16H7.15828ZM20.7183 41.94H32.3583L31.6983 26.94H31.5783L20.7183 41.94ZM55.9748 34.44H60.2348V38.7H64.4948V42.96H60.2348V60H55.9748V34.44ZM73.0148 38.7H64.4948V34.44H73.0148V38.7ZM89.843 33.48C92.543 33.48 96.323 35.16 96.323 38.46C96.323 41.7 93.683 42.96 92.123 42.96C90.803 42.96 89.783 42.24 89.783 40.74C89.783 38.58 92.003 37.74 92.003 35.88C92.003 34.92 91.103 34.26 89.483 34.26C83.243 34.26 78.683 48.6 78.683 54.66C78.683 57.84 80.183 59.7 83.243 59.7C87.983 59.7 90.983 56.22 92.903 53.46L93.623 53.94C91.643 56.88 88.283 60.78 82.283 60.78C76.763 60.78 72.503 57.18 72.503 51.66C72.503 44.1 80.483 33.48 89.843 33.48ZM102.498 25.92H106.758V42.96H111.018V47.22H106.758V60H102.498V25.92ZM111.018 38.7H119.538V42.96H111.018V38.7ZM123.798 60H119.538V42.96H123.798V60ZM136.583 34.44H132.323V25.92H136.583V34.44ZM136.583 38.7V60H132.323V38.7H136.583ZM145.096 42.96V34.44H149.356V42.96H145.096ZM166.396 42.96V34.44H170.656V42.96H166.396ZM149.356 55.74V42.96H153.616V55.74H149.356ZM166.396 51.48H162.136V42.96H166.396V51.48ZM162.136 55.74H157.876V51.48H162.136V55.74ZM157.876 60H153.616V55.74H157.876V60ZM183.458 34.44H196.238V38.7H183.458V34.44ZM196.238 42.96V47.22H183.458V55.74H179.198V38.7H183.458V42.96H196.238ZM200.498 38.7V42.96H196.238V38.7H200.498ZM200.498 55.74V51.48H204.758V55.74H200.498ZM200.498 60H183.458V55.74H200.498V60Z" fill="black"/>
<path d="M7.15828 59.16V60.16H7.67173L7.97094 59.7427L7.15828 59.16ZM37.8783 16.32V15.32H37.3648L37.0656 15.7373L37.8783 16.32ZM39.2583 16.32L40.2574 16.278L40.2171 15.32H39.2583V16.32ZM41.0583 59.16L40.0592 59.202L40.0994 60.16H41.0583V59.16ZM46.3383 59.16L47.2998 59.4347L47.664 58.16H46.3383V59.16ZM46.0983 60V61H46.8526L47.0598 60.2747L46.0983 60ZM27.3783 60L26.4168 59.7253L26.0526 61H27.3783V60ZM27.6183 59.16V58.16H26.864L26.6568 58.8853L27.6183 59.16ZM33.0783 59.16V60.16H34.1232L34.0773 59.1161L33.0783 59.16ZM32.3583 42.78L33.3573 42.7361L33.3153 41.78H32.3583V42.78ZM20.1183 42.78V41.78H19.6052L19.306 42.1968L20.1183 42.78ZM8.35828 59.16L7.54596 58.5768L6.4093 60.16H8.35828V59.16ZM13.3383 59.16L14.2998 59.4347L14.664 58.16H13.3383V59.16ZM13.0983 60V61H13.8526L14.0598 60.2747L13.0983 60ZM2.83828 60L1.87676 59.7253L1.51255 61H2.83828V60ZM3.07828 59.16V58.16H2.32398L2.11676 58.8853L3.07828 59.16ZM20.7183 41.94L19.9083 41.3536L18.7597 42.94H20.7183V41.94ZM32.3583 41.94V42.94H33.4032L33.3573 41.896L32.3583 41.94ZM31.6983 26.94L32.6973 26.896L32.6553 25.94H31.6983V26.94ZM31.5783 26.94V25.94H31.0677L30.7683 26.3536L31.5783 26.94ZM7.97094 59.7427L38.6909 16.9027L37.0656 15.7373L6.34563 58.5773L7.97094 59.7427ZM37.8783 17.32H39.2583V15.32H37.8783V17.32ZM38.2592 16.362L40.0592 59.202L42.0574 59.118L40.2574 16.278L38.2592 16.362ZM41.0583 60.16H46.3383V58.16H41.0583V60.16ZM45.3768 58.8853L45.1368 59.7253L47.0598 60.2747L47.2998 59.4347L45.3768 58.8853ZM46.0983 59H27.3783V61H46.0983V59ZM28.3398 60.2747L28.5798 59.4347L26.6568 58.8853L26.4168 59.7253L28.3398 60.2747ZM27.6183 60.16H33.0783V58.16H27.6183V60.16ZM34.0773 59.1161L33.3573 42.7361L31.3592 42.8239L32.0792 59.2039L34.0773 59.1161ZM32.3583 41.78H20.1183V43.78H32.3583V41.78ZM19.306 42.1968L7.54596 58.5768L9.1706 59.7432L20.9306 43.3632L19.306 42.1968ZM8.35828 60.16H13.3383V58.16H8.35828V60.16ZM12.3768 58.8853L12.1368 59.7253L14.0598 60.2747L14.2998 59.4347L12.3768 58.8853ZM13.0983 59H2.83828V61H13.0983V59ZM3.7998 60.2747L4.03981 59.4347L2.11676 58.8853L1.87676 59.7253L3.7998 60.2747ZM3.07828 60.16H7.15828V58.16H3.07828V60.16ZM20.7183 42.94H32.3583V40.94H20.7183V42.94ZM33.3573 41.896L32.6973 26.896L30.6992 26.984L31.3592 41.984L33.3573 41.896ZM31.6983 25.94H31.5783V27.94H31.6983V25.94ZM30.7683 26.3536L19.9083 41.3536L21.5283 42.5264L32.3883 27.5264L30.7683 26.3536ZM55.9748 34.44V33.44H54.9748V34.44H55.9748ZM60.2348 34.44H61.2348V33.44H60.2348V34.44ZM60.2348 38.7H59.2348V39.7H60.2348V38.7ZM64.4948 38.7H65.4948V37.7H64.4948V38.7ZM64.4948 42.96V43.96H65.4948V42.96H64.4948ZM60.2348 42.96V41.96H59.2348V42.96H60.2348ZM60.2348 60V61H61.2348V60H60.2348ZM55.9748 60H54.9748V61H55.9748V60ZM73.0148 38.7V39.7H74.0148V38.7H73.0148ZM64.4948 38.7H63.4948V39.7H64.4948V38.7ZM64.4948 34.44V33.44H63.4948V34.44H64.4948ZM73.0148 34.44H74.0148V33.44H73.0148V34.44ZM55.9748 35.44H60.2348V33.44H55.9748V35.44ZM59.2348 34.44V38.7H61.2348V34.44H59.2348ZM60.2348 39.7H64.4948V37.7H60.2348V39.7ZM63.4948 38.7V42.96H65.4948V38.7H63.4948ZM64.4948 41.96H60.2348V43.96H64.4948V41.96ZM59.2348 42.96V60H61.2348V42.96H59.2348ZM60.2348 59H55.9748V61H60.2348V59ZM56.9748 60V34.44H54.9748V60H56.9748ZM73.0148 37.7H64.4948V39.7H73.0148V37.7ZM65.4948 38.7V34.44H63.4948V38.7H65.4948ZM64.4948 35.44H73.0148V33.44H64.4948V35.44ZM72.0148 34.44V38.7H74.0148V34.44H72.0148ZM92.903 53.46L93.4577 52.6279L92.6419 52.0841L92.0821 52.8889L92.903 53.46ZM93.623 53.94L94.4524 54.4986L95.0136 53.6653L94.1777 53.1079L93.623 53.94ZM89.843 34.48C91.0145 34.48 92.4425 34.8518 93.551 35.5713C94.6447 36.2812 95.323 37.2485 95.323 38.46H97.323C97.323 36.3715 96.1112 34.8488 94.6399 33.8937C93.1834 32.9482 91.3715 32.48 89.843 32.48V34.48ZM95.323 38.46C95.323 39.7747 94.8012 40.6234 94.1638 41.1601C93.4925 41.7254 92.6717 41.96 92.123 41.96V43.96C93.1342 43.96 94.4134 43.5646 95.4521 42.6899C96.5247 41.7866 97.323 40.3853 97.323 38.46H95.323ZM92.123 41.96C91.6346 41.96 91.3073 41.8269 91.1165 41.6599C90.9459 41.5107 90.783 41.2477 90.783 40.74H88.783C88.783 41.7322 89.13 42.5793 89.7995 43.1651C90.4487 43.7331 91.2914 43.96 92.123 43.96V41.96ZM90.783 40.74C90.783 40.037 91.1214 39.5316 91.6819 38.812C92.1819 38.1701 93.003 37.2166 93.003 35.88H91.003C91.003 36.4034 90.714 36.7999 90.1041 37.583C89.5546 38.2884 88.783 39.283 88.783 40.74H90.783ZM93.003 35.88C93.003 35.0405 92.5893 34.334 91.9052 33.8779C91.2578 33.4464 90.4109 33.26 89.483 33.26V35.26C90.1751 35.26 90.5881 35.4036 90.7958 35.542C90.9667 35.656 91.003 35.7595 91.003 35.88H93.003ZM89.483 33.26C87.5195 33.26 85.8162 34.3864 84.4222 35.9236C83.0184 37.4716 81.8117 39.559 80.8284 41.7831C78.8676 46.218 77.683 51.4569 77.683 54.66H79.683C79.683 51.8031 80.7784 46.842 82.6576 42.5919C83.5942 40.4735 84.6975 38.5972 85.9037 37.2671C87.1198 35.9261 88.3264 35.26 89.483 35.26V33.26ZM77.683 54.66C77.683 56.3907 78.0898 57.923 79.0641 59.0324C80.058 60.1641 81.5042 60.7 83.243 60.7V58.7C81.9217 58.7 81.0879 58.3059 80.5668 57.7126C80.0261 57.097 79.683 56.1093 79.683 54.66H77.683ZM83.243 60.7C88.5266 60.7 91.7897 56.8115 93.7239 54.0311L92.0821 52.8889C90.1763 55.6285 87.4394 58.7 83.243 58.7V60.7ZM92.3483 54.292L93.0683 54.772L94.1777 53.1079L93.4577 52.6279L92.3483 54.292ZM92.7935 53.3814C90.8641 56.2463 87.7652 59.78 82.283 59.78V61.78C88.8008 61.78 92.4218 57.5137 94.4524 54.4986L92.7935 53.3814ZM82.283 59.78C79.7387 59.78 77.5427 58.9517 75.9944 57.5489C74.4552 56.1545 73.503 54.1467 73.503 51.66H71.503C71.503 54.6933 72.6807 57.2455 74.6516 59.0311C76.6132 60.8083 79.3073 61.78 82.283 61.78V59.78ZM73.503 51.66C73.503 48.1886 75.3601 43.8689 78.414 40.3953C81.4619 36.9285 85.5449 34.48 89.843 34.48V32.48C84.7811 32.48 80.194 35.3415 76.9119 39.0747C73.6358 42.8011 71.503 47.5714 71.503 51.66H73.503ZM102.498 25.92V24.92H101.498V25.92H102.498ZM106.758 25.92H107.758V24.92H106.758V25.92ZM106.758 42.96H105.758V43.96H106.758V42.96ZM111.018 42.96H112.018V41.96H111.018V42.96ZM111.018 47.22V48.22H112.018V47.22H111.018ZM106.758 47.22V46.22H105.758V47.22H106.758ZM106.758 60V61H107.758V60H106.758ZM102.498 60H101.498V61H102.498V60ZM111.018 38.7V37.7H110.018V38.7H111.018ZM119.538 38.7H120.538V37.7H119.538V38.7ZM119.538 42.96V43.96H120.538V42.96H119.538ZM111.018 42.96H110.018V43.96H111.018V42.96ZM123.798 60V61H124.798V60H123.798ZM119.538 60H118.538V61H119.538V60ZM119.538 42.96V41.96H118.538V42.96H119.538ZM123.798 42.96H124.798V41.96H123.798V42.96ZM102.498 26.92H106.758V24.92H102.498V26.92ZM105.758 25.92V42.96H107.758V25.92H105.758ZM106.758 43.96H111.018V41.96H106.758V43.96ZM110.018 42.96V47.22H112.018V42.96H110.018ZM111.018 46.22H106.758V48.22H111.018V46.22ZM105.758 47.22V60H107.758V47.22H105.758ZM106.758 59H102.498V61H106.758V59ZM103.498 60V25.92H101.498V60H103.498ZM111.018 39.7H119.538V37.7H111.018V39.7ZM118.538 38.7V42.96H120.538V38.7H118.538ZM119.538 41.96H111.018V43.96H119.538V41.96ZM112.018 42.96V38.7H110.018V42.96H112.018ZM123.798 59H119.538V61H123.798V59ZM120.538 60V42.96H118.538V60H120.538ZM119.538 43.96H123.798V41.96H119.538V43.96ZM122.798 42.96V60H124.798V42.96H122.798ZM136.583 34.44V35.44H137.583V34.44H136.583ZM132.323 34.44H131.323V35.44H132.323V34.44ZM132.323 25.92V24.92H131.323V25.92H132.323ZM136.583 25.92H137.583V24.92H136.583V25.92ZM136.583 38.7H137.583V37.7H136.583V38.7ZM136.583 60V61H137.583V60H136.583ZM132.323 60H131.323V61H132.323V60ZM132.323 38.7V37.7H131.323V38.7H132.323ZM136.583 33.44H132.323V35.44H136.583V33.44ZM133.323 34.44V25.92H131.323V34.44H133.323ZM132.323 26.92H136.583V24.92H132.323V26.92ZM135.583 25.92V34.44H137.583V25.92H135.583ZM135.583 38.7V60H137.583V38.7H135.583ZM136.583 59H132.323V61H136.583V59ZM133.323 60V38.7H131.323V60H133.323ZM132.323 39.7H136.583V37.7H132.323V39.7ZM145.096 42.96H144.096V43.96H145.096V42.96ZM145.096 34.44V33.44H144.096V34.44H145.096ZM149.356 34.44H150.356V33.44H149.356V34.44ZM149.356 42.96V43.96H150.356V42.96H149.356ZM166.396 42.96H165.396V43.96H166.396V42.96ZM166.396 34.44V33.44H165.396V34.44H166.396ZM170.656 34.44H171.656V33.44H170.656V34.44ZM170.656 42.96V43.96H171.656V42.96H170.656ZM149.356 55.74H148.356V56.74H149.356V55.74ZM149.356 42.96V41.96H148.356V42.96H149.356ZM153.616 42.96H154.616V41.96H153.616V42.96ZM153.616 55.74V56.74H154.616V55.74H153.616ZM166.396 51.48V52.48H167.396V51.48H166.396ZM162.136 51.48H161.136V52.48H162.136V51.48ZM162.136 42.96V41.96H161.136V42.96H162.136ZM166.396 42.96H167.396V41.96H166.396V42.96ZM162.136 55.74V56.74H163.136V55.74H162.136ZM157.876 55.74H156.876V56.74H157.876V55.74ZM157.876 51.48V50.48H156.876V51.48H157.876ZM162.136 51.48H163.136V50.48H162.136V51.48ZM157.876 60V61H158.876V60H157.876ZM153.616 60H152.616V61H153.616V60ZM153.616 55.74V54.74H152.616V55.74H153.616ZM157.876 55.74H158.876V54.74H157.876V55.74ZM146.096 42.96V34.44H144.096V42.96H146.096ZM145.096 35.44H149.356V33.44H145.096V35.44ZM148.356 34.44V42.96H150.356V34.44H148.356ZM149.356 41.96H145.096V43.96H149.356V41.96ZM167.396 42.96V34.44H165.396V42.96H167.396ZM166.396 35.44H170.656V33.44H166.396V35.44ZM169.656 34.44V42.96H171.656V34.44H169.656ZM170.656 41.96H166.396V43.96H170.656V41.96ZM150.356 55.74V42.96H148.356V55.74H150.356ZM149.356 43.96H153.616V41.96H149.356V43.96ZM152.616 42.96V55.74H154.616V42.96H152.616ZM153.616 54.74H149.356V56.74H153.616V54.74ZM166.396 50.48H162.136V52.48H166.396V50.48ZM163.136 51.48V42.96H161.136V51.48H163.136ZM162.136 43.96H166.396V41.96H162.136V43.96ZM165.396 42.96V51.48H167.396V42.96H165.396ZM162.136 54.74H157.876V56.74H162.136V54.74ZM158.876 55.74V51.48H156.876V55.74H158.876ZM157.876 52.48H162.136V50.48H157.876V52.48ZM161.136 51.48V55.74H163.136V51.48H161.136ZM157.876 59H153.616V61H157.876V59ZM154.616 60V55.74H152.616V60H154.616ZM153.616 56.74H157.876V54.74H153.616V56.74ZM156.876 55.74V60H158.876V55.74H156.876ZM183.458 34.44V33.44H182.458V34.44H183.458ZM196.238 34.44H197.238V33.44H196.238V34.44ZM196.238 38.7V39.7H197.238V38.7H196.238ZM183.458 38.7H182.458V39.7H183.458V38.7ZM196.238 42.96H197.238V41.96H196.238V42.96ZM196.238 47.22V48.22H197.238V47.22H196.238ZM183.458 47.22V46.22H182.458V47.22H183.458ZM183.458 55.74V56.74H184.458V55.74H183.458ZM179.198 55.74H178.198V56.74H179.198V55.74ZM179.198 38.7V37.7H178.198V38.7H179.198ZM183.458 38.7H184.458V37.7H183.458V38.7ZM183.458 42.96H182.458V43.96H183.458V42.96ZM200.498 38.7H201.498V37.7H200.498V38.7ZM200.498 42.96V43.96H201.498V42.96H200.498ZM196.238 42.96H195.238V43.96H196.238V42.96ZM196.238 38.7V37.7H195.238V38.7H196.238ZM200.498 55.74H199.498V56.74H200.498V55.74ZM200.498 51.48V50.48H199.498V51.48H200.498ZM204.758 51.48H205.758V50.48H204.758V51.48ZM204.758 55.74V56.74H205.758V55.74H204.758ZM200.498 60V61H201.498V60H200.498ZM183.458 60H182.458V61H183.458V60ZM183.458 55.74V54.74H182.458V55.74H183.458ZM200.498 55.74H201.498V54.74H200.498V55.74ZM183.458 35.44H196.238V33.44H183.458V35.44ZM195.238 34.44V38.7H197.238V34.44H195.238ZM196.238 37.7H183.458V39.7H196.238V37.7ZM184.458 38.7V34.44H182.458V38.7H184.458ZM195.238 42.96V47.22H197.238V42.96H195.238ZM196.238 46.22H183.458V48.22H196.238V46.22ZM182.458 47.22V55.74H184.458V47.22H182.458ZM183.458 54.74H179.198V56.74H183.458V54.74ZM180.198 55.74V38.7H178.198V55.74H180.198ZM179.198 39.7H183.458V37.7H179.198V39.7ZM182.458 38.7V42.96H184.458V38.7H182.458ZM183.458 43.96H196.238V41.96H183.458V43.96ZM199.498 38.7V42.96H201.498V38.7H199.498ZM200.498 41.96H196.238V43.96H200.498V41.96ZM197.238 42.96V38.7H195.238V42.96H197.238ZM196.238 39.7H200.498V37.7H196.238V39.7ZM201.498 55.74V51.48H199.498V55.74H201.498ZM200.498 52.48H204.758V50.48H200.498V52.48ZM203.758 51.48V55.74H205.758V51.48H203.758ZM204.758 54.74H200.498V56.74H204.758V54.74ZM200.498 59H183.458V61H200.498V59ZM184.458 60V55.74H182.458V60H184.458ZM183.458 56.74H200.498V54.74H183.458V56.74ZM199.498 55.74V60H201.498V55.74H199.498Z" fill="black" mask="url(#path-1-outside-1_13_177)"/>
<mask id="path-3-outside-2_13_177" maskUnits="userSpaceOnUse" x="0" y="14" width="205" height="47" fill="black">
<rect fill="white" y="14" width="205" height="47"/>
<path d="M6.15828 58.16L36.8783 15.32H38.2583L40.0583 58.16H45.3383L45.0983 59H26.3783L26.6183 58.16H32.0783L31.3583 41.78H19.1183L7.35828 58.16H12.3383L12.0983 59H1.83828L2.07828 58.16H6.15828ZM19.7183 40.94H31.3583L30.6983 25.94H30.5783L19.7183 40.94ZM54.9748 33.44H59.2348V37.7H63.4948V41.96H59.2348V59H54.9748V33.44ZM72.0148 37.7H63.4948V33.44H72.0148V37.7ZM88.843 32.48C91.543 32.48 95.323 34.16 95.323 37.46C95.323 40.7 92.683 41.96 91.123 41.96C89.803 41.96 88.783 41.24 88.783 39.74C88.783 37.58 91.003 36.74 91.003 34.88C91.003 33.92 90.103 33.26 88.483 33.26C82.243 33.26 77.683 47.6 77.683 53.66C77.683 56.84 79.183 58.7 82.243 58.7C86.983 58.7 89.983 55.22 91.903 52.46L92.623 52.94C90.643 55.88 87.283 59.78 81.283 59.78C75.763 59.78 71.503 56.18 71.503 50.66C71.503 43.1 79.483 32.48 88.843 32.48ZM101.498 24.92H105.758V41.96H110.018V46.22H105.758V59H101.498V24.92ZM110.018 37.7H118.538V41.96H110.018V37.7ZM122.798 59H118.538V41.96H122.798V59ZM135.583 33.44H131.323V24.92H135.583V33.44ZM135.583 37.7V59H131.323V37.7H135.583ZM144.096 41.96V33.44H148.356V41.96H144.096ZM165.396 41.96V33.44H169.656V41.96H165.396ZM148.356 54.74V41.96H152.616V54.74H148.356ZM165.396 50.48H161.136V41.96H165.396V50.48ZM161.136 54.74H156.876V50.48H161.136V54.74ZM156.876 59H152.616V54.74H156.876V59ZM182.458 33.44H195.238V37.7H182.458V33.44ZM195.238 41.96V46.22H182.458V54.74H178.198V37.7H182.458V41.96H195.238ZM199.498 37.7V41.96H195.238V37.7H199.498ZM199.498 54.74V50.48H203.758V54.74H199.498ZM199.498 59H182.458V54.74H199.498V59Z"/>
</mask>
<path d="M6.15828 58.16L36.8783 15.32H38.2583L40.0583 58.16H45.3383L45.0983 59H26.3783L26.6183 58.16H32.0783L31.3583 41.78H19.1183L7.35828 58.16H12.3383L12.0983 59H1.83828L2.07828 58.16H6.15828ZM19.7183 40.94H31.3583L30.6983 25.94H30.5783L19.7183 40.94ZM54.9748 33.44H59.2348V37.7H63.4948V41.96H59.2348V59H54.9748V33.44ZM72.0148 37.7H63.4948V33.44H72.0148V37.7ZM88.843 32.48C91.543 32.48 95.323 34.16 95.323 37.46C95.323 40.7 92.683 41.96 91.123 41.96C89.803 41.96 88.783 41.24 88.783 39.74C88.783 37.58 91.003 36.74 91.003 34.88C91.003 33.92 90.103 33.26 88.483 33.26C82.243 33.26 77.683 47.6 77.683 53.66C77.683 56.84 79.183 58.7 82.243 58.7C86.983 58.7 89.983 55.22 91.903 52.46L92.623 52.94C90.643 55.88 87.283 59.78 81.283 59.78C75.763 59.78 71.503 56.18 71.503 50.66C71.503 43.1 79.483 32.48 88.843 32.48ZM101.498 24.92H105.758V41.96H110.018V46.22H105.758V59H101.498V24.92ZM110.018 37.7H118.538V41.96H110.018V37.7ZM122.798 59H118.538V41.96H122.798V59ZM135.583 33.44H131.323V24.92H135.583V33.44ZM135.583 37.7V59H131.323V37.7H135.583ZM144.096 41.96V33.44H148.356V41.96H144.096ZM165.396 41.96V33.44H169.656V41.96H165.396ZM148.356 54.74V41.96H152.616V54.74H148.356ZM165.396 50.48H161.136V41.96H165.396V50.48ZM161.136 54.74H156.876V50.48H161.136V54.74ZM156.876 59H152.616V54.74H156.876V59ZM182.458 33.44H195.238V37.7H182.458V33.44ZM195.238 41.96V46.22H182.458V54.74H178.198V37.7H182.458V41.96H195.238ZM199.498 37.7V41.96H195.238V37.7H199.498ZM199.498 54.74V50.48H203.758V54.74H199.498ZM199.498 59H182.458V54.74H199.498V59Z" fill="white"/>
<path d="M6.15828 58.16V59.16H6.67173L6.97094 58.7427L6.15828 58.16ZM36.8783 15.32V14.32H36.3648L36.0656 14.7373L36.8783 15.32ZM38.2583 15.32L39.2574 15.278L39.2171 14.32H38.2583V15.32ZM40.0583 58.16L39.0592 58.202L39.0994 59.16H40.0583V58.16ZM45.3383 58.16L46.2998 58.4347L46.664 57.16H45.3383V58.16ZM45.0983 59V60H45.8526L46.0598 59.2747L45.0983 59ZM26.3783 59L25.4168 58.7253L25.0526 60H26.3783V59ZM26.6183 58.16V57.16H25.864L25.6568 57.8853L26.6183 58.16ZM32.0783 58.16V59.16H33.1232L33.0773 58.1161L32.0783 58.16ZM31.3583 41.78L32.3573 41.7361L32.3153 40.78H31.3583V41.78ZM19.1183 41.78V40.78H18.6052L18.306 41.1968L19.1183 41.78ZM7.35828 58.16L6.54596 57.5768L5.4093 59.16H7.35828V58.16ZM12.3383 58.16L13.2998 58.4347L13.664 57.16H12.3383V58.16ZM12.0983 59V60H12.8526L13.0598 59.2747L12.0983 59ZM1.83828 59L0.876757 58.7253L0.512551 60H1.83828V59ZM2.07828 58.16V57.16H1.32398L1.11676 57.8853L2.07828 58.16ZM19.7183 40.94L18.9083 40.3536L17.7597 41.94H19.7183V40.94ZM31.3583 40.94V41.94H32.4032L32.3573 40.896L31.3583 40.94ZM30.6983 25.94L31.6973 25.896L31.6553 24.94H30.6983V25.94ZM30.5783 25.94V24.94H30.0677L29.7683 25.3536L30.5783 25.94ZM6.97094 58.7427L37.6909 15.9027L36.0656 14.7373L5.34563 57.5773L6.97094 58.7427ZM36.8783 16.32H38.2583V14.32H36.8783V16.32ZM37.2592 15.362L39.0592 58.202L41.0574 58.118L39.2574 15.278L37.2592 15.362ZM40.0583 59.16H45.3383V57.16H40.0583V59.16ZM44.3768 57.8853L44.1368 58.7253L46.0598 59.2747L46.2998 58.4347L44.3768 57.8853ZM45.0983 58H26.3783V60H45.0983V58ZM27.3398 59.2747L27.5798 58.4347L25.6568 57.8853L25.4168 58.7253L27.3398 59.2747ZM26.6183 59.16H32.0783V57.16H26.6183V59.16ZM33.0773 58.1161L32.3573 41.7361L30.3592 41.8239L31.0792 58.2039L33.0773 58.1161ZM31.3583 40.78H19.1183V42.78H31.3583V40.78ZM18.306 41.1968L6.54596 57.5768L8.1706 58.7432L19.9306 42.3632L18.306 41.1968ZM7.35828 59.16H12.3383V57.16H7.35828V59.16ZM11.3768 57.8853L11.1368 58.7253L13.0598 59.2747L13.2998 58.4347L11.3768 57.8853ZM12.0983 58H1.83828V60H12.0983V58ZM2.7998 59.2747L3.03981 58.4347L1.11676 57.8853L0.876757 58.7253L2.7998 59.2747ZM2.07828 59.16H6.15828V57.16H2.07828V59.16ZM19.7183 41.94H31.3583V39.94H19.7183V41.94ZM32.3573 40.896L31.6973 25.896L29.6992 25.984L30.3592 40.984L32.3573 40.896ZM30.6983 24.94H30.5783V26.94H30.6983V24.94ZM29.7683 25.3536L18.9083 40.3536L20.5283 41.5264L31.3883 26.5264L29.7683 25.3536ZM54.9748 33.44V32.44H53.9748V33.44H54.9748ZM59.2348 33.44H60.2348V32.44H59.2348V33.44ZM59.2348 37.7H58.2348V38.7H59.2348V37.7ZM63.4948 37.7H64.4948V36.7H63.4948V37.7ZM63.4948 41.96V42.96H64.4948V41.96H63.4948ZM59.2348 41.96V40.96H58.2348V41.96H59.2348ZM59.2348 59V60H60.2348V59H59.2348ZM54.9748 59H53.9748V60H54.9748V59ZM72.0148 37.7V38.7H73.0148V37.7H72.0148ZM63.4948 37.7H62.4948V38.7H63.4948V37.7ZM63.4948 33.44V32.44H62.4948V33.44H63.4948ZM72.0148 33.44H73.0148V32.44H72.0148V33.44ZM54.9748 34.44H59.2348V32.44H54.9748V34.44ZM58.2348 33.44V37.7H60.2348V33.44H58.2348ZM59.2348 38.7H63.4948V36.7H59.2348V38.7ZM62.4948 37.7V41.96H64.4948V37.7H62.4948ZM63.4948 40.96H59.2348V42.96H63.4948V40.96ZM58.2348 41.96V59H60.2348V41.96H58.2348ZM59.2348 58H54.9748V60H59.2348V58ZM55.9748 59V33.44H53.9748V59H55.9748ZM72.0148 36.7H63.4948V38.7H72.0148V36.7ZM64.4948 37.7V33.44H62.4948V37.7H64.4948ZM63.4948 34.44H72.0148V32.44H63.4948V34.44ZM71.0148 33.44V37.7H73.0148V33.44H71.0148ZM91.903 52.46L92.4577 51.6279L91.6419 51.0841L91.0821 51.8889L91.903 52.46ZM92.623 52.94L93.4524 53.4986L94.0136 52.6653L93.1777 52.1079L92.623 52.94ZM88.843 33.48C90.0145 33.48 91.4425 33.8518 92.551 34.5713C93.6447 35.2812 94.323 36.2485 94.323 37.46H96.323C96.323 35.3715 95.1112 33.8488 93.6399 32.8937C92.1834 31.9482 90.3715 31.48 88.843 31.48V33.48ZM94.323 37.46C94.323 38.7747 93.8012 39.6234 93.1638 40.1601C92.4925 40.7254 91.6717 40.96 91.123 40.96V42.96C92.1342 42.96 93.4134 42.5646 94.4521 41.6899C95.5247 40.7866 96.323 39.3853 96.323 37.46H94.323ZM91.123 40.96C90.6346 40.96 90.3073 40.8269 90.1165 40.6599C89.9459 40.5107 89.783 40.2477 89.783 39.74H87.783C87.783 40.7322 88.13 41.5793 88.7995 42.1651C89.4487 42.7331 90.2914 42.96 91.123 42.96V40.96ZM89.783 39.74C89.783 39.037 90.1214 38.5316 90.6819 37.812C91.1819 37.1701 92.003 36.2166 92.003 34.88H90.003C90.003 35.4034 89.714 35.7999 89.1041 36.583C88.5546 37.2884 87.783 38.283 87.783 39.74H89.783ZM92.003 34.88C92.003 34.0405 91.5893 33.334 90.9052 32.8779C90.2578 32.4464 89.4109 32.26 88.483 32.26V34.26C89.1751 34.26 89.5881 34.4036 89.7958 34.542C89.9667 34.656 90.003 34.7595 90.003 34.88H92.003ZM88.483 32.26C86.5195 32.26 84.8162 33.3864 83.4222 34.9236C82.0184 36.4716 80.8117 38.559 79.8284 40.7831C77.8676 45.218 76.683 50.4569 76.683 53.66H78.683C78.683 50.8031 79.7784 45.842 81.6576 41.5919C82.5942 39.4735 83.6975 37.5972 84.9037 36.2671C86.1198 34.9261 87.3264 34.26 88.483 34.26V32.26ZM76.683 53.66C76.683 55.3907 77.0898 56.923 78.0641 58.0324C79.058 59.1641 80.5042 59.7 82.243 59.7V57.7C80.9217 57.7 80.0879 57.3059 79.5668 56.7126C79.0261 56.097 78.683 55.1093 78.683 53.66H76.683ZM82.243 59.7C87.5266 59.7 90.7897 55.8115 92.7239 53.0311L91.0821 51.8889C89.1763 54.6285 86.4394 57.7 82.243 57.7V59.7ZM91.3483 53.292L92.0683 53.772L93.1777 52.1079L92.4577 51.6279L91.3483 53.292ZM91.7935 52.3814C89.8641 55.2463 86.7652 58.78 81.283 58.78V60.78C87.8008 60.78 91.4218 56.5137 93.4524 53.4986L91.7935 52.3814ZM81.283 58.78C78.7387 58.78 76.5427 57.9517 74.9944 56.5489C73.4552 55.1545 72.503 53.1467 72.503 50.66H70.503C70.503 53.6933 71.6807 56.2455 73.6516 58.0311C75.6132 59.8083 78.3073 60.78 81.283 60.78V58.78ZM72.503 50.66C72.503 47.1886 74.3601 42.8689 77.414 39.3953C80.4619 35.9285 84.5449 33.48 88.843 33.48V31.48C83.7811 31.48 79.194 34.3415 75.9119 38.0747C72.6358 41.8011 70.503 46.5714 70.503 50.66H72.503ZM101.498 24.92V23.92H100.498V24.92H101.498ZM105.758 24.92H106.758V23.92H105.758V24.92ZM105.758 41.96H104.758V42.96H105.758V41.96ZM110.018 41.96H111.018V40.96H110.018V41.96ZM110.018 46.22V47.22H111.018V46.22H110.018ZM105.758 46.22V45.22H104.758V46.22H105.758ZM105.758 59V60H106.758V59H105.758ZM101.498 59H100.498V60H101.498V59ZM110.018 37.7V36.7H109.018V37.7H110.018ZM118.538 37.7H119.538V36.7H118.538V37.7ZM118.538 41.96V42.96H119.538V41.96H118.538ZM110.018 41.96H109.018V42.96H110.018V41.96ZM122.798 59V60H123.798V59H122.798ZM118.538 59H117.538V60H118.538V59ZM118.538 41.96V40.96H117.538V41.96H118.538ZM122.798 41.96H123.798V40.96H122.798V41.96ZM101.498 25.92H105.758V23.92H101.498V25.92ZM104.758 24.92V41.96H106.758V24.92H104.758ZM105.758 42.96H110.018V40.96H105.758V42.96ZM109.018 41.96V46.22H111.018V41.96H109.018ZM110.018 45.22H105.758V47.22H110.018V45.22ZM104.758 46.22V59H106.758V46.22H104.758ZM105.758 58H101.498V60H105.758V58ZM102.498 59V24.92H100.498V59H102.498ZM110.018 38.7H118.538V36.7H110.018V38.7ZM117.538 37.7V41.96H119.538V37.7H117.538ZM118.538 40.96H110.018V42.96H118.538V40.96ZM111.018 41.96V37.7H109.018V41.96H111.018ZM122.798 58H118.538V60H122.798V58ZM119.538 59V41.96H117.538V59H119.538ZM118.538 42.96H122.798V40.96H118.538V42.96ZM121.798 41.96V59H123.798V41.96H121.798ZM135.583 33.44V34.44H136.583V33.44H135.583ZM131.323 33.44H130.323V34.44H131.323V33.44ZM131.323 24.92V23.92H130.323V24.92H131.323ZM135.583 24.92H136.583V23.92H135.583V24.92ZM135.583 37.7H136.583V36.7H135.583V37.7ZM135.583 59V60H136.583V59H135.583ZM131.323 59H130.323V60H131.323V59ZM131.323 37.7V36.7H130.323V37.7H131.323ZM135.583 32.44H131.323V34.44H135.583V32.44ZM132.323 33.44V24.92H130.323V33.44H132.323ZM131.323 25.92H135.583V23.92H131.323V25.92ZM134.583 24.92V33.44H136.583V24.92H134.583ZM134.583 37.7V59H136.583V37.7H134.583ZM135.583 58H131.323V60H135.583V58ZM132.323 59V37.7H130.323V59H132.323ZM131.323 38.7H135.583V36.7H131.323V38.7ZM144.096 41.96H143.096V42.96H144.096V41.96ZM144.096 33.44V32.44H143.096V33.44H144.096ZM148.356 33.44H149.356V32.44H148.356V33.44ZM148.356 41.96V42.96H149.356V41.96H148.356ZM165.396 41.96H164.396V42.96H165.396V41.96ZM165.396 33.44V32.44H164.396V33.44H165.396ZM169.656 33.44H170.656V32.44H169.656V33.44ZM169.656 41.96V42.96H170.656V41.96H169.656ZM148.356 54.74H147.356V55.74H148.356V54.74ZM148.356 41.96V40.96H147.356V41.96H148.356ZM152.616 41.96H153.616V40.96H152.616V41.96ZM152.616 54.74V55.74H153.616V54.74H152.616ZM165.396 50.48V51.48H166.396V50.48H165.396ZM161.136 50.48H160.136V51.48H161.136V50.48ZM161.136 41.96V40.96H160.136V41.96H161.136ZM165.396 41.96H166.396V40.96H165.396V41.96ZM161.136 54.74V55.74H162.136V54.74H161.136ZM156.876 54.74H155.876V55.74H156.876V54.74ZM156.876 50.48V49.48H155.876V50.48H156.876ZM161.136 50.48H162.136V49.48H161.136V50.48ZM156.876 59V60H157.876V59H156.876ZM152.616 59H151.616V60H152.616V59ZM152.616 54.74V53.74H151.616V54.74H152.616ZM156.876 54.74H157.876V53.74H156.876V54.74ZM145.096 41.96V33.44H143.096V41.96H145.096ZM144.096 34.44H148.356V32.44H144.096V34.44ZM147.356 33.44V41.96H149.356V33.44H147.356ZM148.356 40.96H144.096V42.96H148.356V40.96ZM166.396 41.96V33.44H164.396V41.96H166.396ZM165.396 34.44H169.656V32.44H165.396V34.44ZM168.656 33.44V41.96H170.656V33.44H168.656ZM169.656 40.96H165.396V42.96H169.656V40.96ZM149.356 54.74V41.96H147.356V54.74H149.356ZM148.356 42.96H152.616V40.96H148.356V42.96ZM151.616 41.96V54.74H153.616V41.96H151.616ZM152.616 53.74H148.356V55.74H152.616V53.74ZM165.396 49.48H161.136V51.48H165.396V49.48ZM162.136 50.48V41.96H160.136V50.48H162.136ZM161.136 42.96H165.396V40.96H161.136V42.96ZM164.396 41.96V50.48H166.396V41.96H164.396ZM161.136 53.74H156.876V55.74H161.136V53.74ZM157.876 54.74V50.48H155.876V54.74H157.876ZM156.876 51.48H161.136V49.48H156.876V51.48ZM160.136 50.48V54.74H162.136V50.48H160.136ZM156.876 58H152.616V60H156.876V58ZM153.616 59V54.74H151.616V59H153.616ZM152.616 55.74H156.876V53.74H152.616V55.74ZM155.876 54.74V59H157.876V54.74H155.876ZM182.458 33.44V32.44H181.458V33.44H182.458ZM195.238 33.44H196.238V32.44H195.238V33.44ZM195.238 37.7V38.7H196.238V37.7H195.238ZM182.458 37.7H181.458V38.7H182.458V37.7ZM195.238 41.96H196.238V40.96H195.238V41.96ZM195.238 46.22V47.22H196.238V46.22H195.238ZM182.458 46.22V45.22H181.458V46.22H182.458ZM182.458 54.74V55.74H183.458V54.74H182.458ZM178.198 54.74H177.198V55.74H178.198V54.74ZM178.198 37.7V36.7H177.198V37.7H178.198ZM182.458 37.7H183.458V36.7H182.458V37.7ZM182.458 41.96H181.458V42.96H182.458V41.96ZM199.498 37.7H200.498V36.7H199.498V37.7ZM199.498 41.96V42.96H200.498V41.96H199.498ZM195.238 41.96H194.238V42.96H195.238V41.96ZM195.238 37.7V36.7H194.238V37.7H195.238ZM199.498 54.74H198.498V55.74H199.498V54.74ZM199.498 50.48V49.48H198.498V50.48H199.498ZM203.758 50.48H204.758V49.48H203.758V50.48ZM203.758 54.74V55.74H204.758V54.74H203.758ZM199.498 59V60H200.498V59H199.498ZM182.458 59H181.458V60H182.458V59ZM182.458 54.74V53.74H181.458V54.74H182.458ZM199.498 54.74H200.498V53.74H199.498V54.74ZM182.458 34.44H195.238V32.44H182.458V34.44ZM194.238 33.44V37.7H196.238V33.44H194.238ZM195.238 36.7H182.458V38.7H195.238V36.7ZM183.458 37.7V33.44H181.458V37.7H183.458ZM194.238 41.96V46.22H196.238V41.96H194.238ZM195.238 45.22H182.458V47.22H195.238V45.22ZM181.458 46.22V54.74H183.458V46.22H181.458ZM182.458 53.74H178.198V55.74H182.458V53.74ZM179.198 54.74V37.7H177.198V54.74H179.198ZM178.198 38.7H182.458V36.7H178.198V38.7ZM181.458 37.7V41.96H183.458V37.7H181.458ZM182.458 42.96H195.238V40.96H182.458V42.96ZM198.498 37.7V41.96H200.498V37.7H198.498ZM199.498 40.96H195.238V42.96H199.498V40.96ZM196.238 41.96V37.7H194.238V41.96H196.238ZM195.238 38.7H199.498V36.7H195.238V38.7ZM200.498 54.74V50.48H198.498V54.74H200.498ZM199.498 51.48H203.758V49.48H199.498V51.48ZM202.758 50.48V54.74H204.758V50.48H202.758ZM203.758 53.74H199.498V55.74H203.758V53.74ZM199.498 58H182.458V60H199.498V58ZM183.458 59V54.74H181.458V59H183.458ZM182.458 55.74H199.498V53.74H182.458V55.74ZM198.498 54.74V59H200.498V54.74H198.498Z" fill="black" mask="url(#path-3-outside-2_13_177)"/>
</svg>
