<svg width="320" height="50" viewBox="0 0 320 50" fill="none" xmlns="http://www.w3.org/2000/svg">
<rect width="320" height="50" rx="8" fill="#FEE500"/>
<path d="M118.636 19.1562C118.636 20.7083 118.456 22.1068 118.097 23.3516C117.737 24.5911 117.089 25.7474 116.151 26.8203C115.219 27.8932 113.922 28.8438 112.261 29.6719L111.307 28.3594C112.505 27.7656 113.485 27.1172 114.245 26.4141C115.011 25.7057 115.604 24.9245 116.026 24.0703L111.636 24.4844L111.417 22.9844L116.55 22.6641C116.727 22.0339 116.844 21.3333 116.901 20.5625H112.151V19.1562H118.636ZM122.354 23.2969H124.448V24.7188H122.354V31.8594H120.62V17.7656H122.354V23.2969ZM132.144 19.1562C132.144 20.7083 131.964 22.1068 131.605 23.3516C131.245 24.5911 130.597 25.7474 129.659 26.8203C128.727 27.8932 127.43 28.8438 125.769 29.6719L124.816 28.3594C126.014 27.7656 126.993 27.1172 127.753 26.4141C128.519 25.7057 129.112 24.9245 129.534 24.0703L125.144 24.4844L124.925 22.9844L130.058 22.6641C130.235 22.0339 130.352 21.3333 130.409 20.5625H125.659V19.1562H132.144ZM135.862 23.2969H137.956V24.7188H135.862V31.8594H134.128V17.7656H135.862V23.2969ZM144.73 18.5625C145.735 18.5625 146.636 18.7214 147.433 19.0391C148.235 19.3568 148.863 19.8047 149.316 20.3828C149.769 20.9609 149.996 21.625 149.996 22.375C149.996 23.0677 149.808 23.6849 149.433 24.2266C149.063 24.7682 148.545 25.2057 147.878 25.5391C147.217 25.8672 146.454 26.0755 145.589 26.1641V28.75H151.214V30.1719H138.308V28.75H143.871V26.1641C143.011 26.0755 142.251 25.8672 141.589 25.5391C140.928 25.2057 140.412 24.7682 140.042 24.2266C139.673 23.6849 139.49 23.0677 139.496 22.375C139.49 21.625 139.712 20.9609 140.16 20.3828C140.613 19.8047 141.238 19.3568 142.035 19.0391C142.832 18.7214 143.73 18.5625 144.73 18.5625ZM144.73 19.9688C144.042 19.9635 143.431 20.0599 142.894 20.2578C142.358 20.4505 141.938 20.7318 141.636 21.1016C141.339 21.4661 141.194 21.8906 141.199 22.375C141.194 22.875 141.339 23.3099 141.636 23.6797C141.938 24.0443 142.358 24.3255 142.894 24.5234C143.431 24.7161 144.042 24.8125 144.73 24.8125C145.428 24.8125 146.045 24.7161 146.582 24.5234C147.123 24.3255 147.542 24.0443 147.839 23.6797C148.141 23.3099 148.292 22.875 148.292 22.375C148.292 21.8854 148.141 21.4583 147.839 21.0938C147.537 20.7292 147.115 20.4505 146.574 20.2578C146.037 20.0599 145.423 19.9635 144.73 19.9688ZM164.691 26.6719H151.785V25.2969H157.363V24.1094H153.441V18.1094H163.144V19.4688H155.176V20.4375H162.801V21.7344H155.176V22.7812H163.254V24.1094H159.097V25.2969H164.691V26.6719ZM163.066 31.8906H161.316V29.0469H153.238V27.6719H163.066V31.8906ZM181.708 30.25H168.801V28.8125H174.364V26.5156H170.333V21.8906H178.458V20.1406H170.301V18.7344H180.176V23.2656H172.067V25.0938H180.504V26.5156H176.083V28.8125H181.708V30.25ZM193.544 20.7344C193.544 21.5781 193.533 22.3047 193.512 22.9141C193.497 23.5182 193.453 24.2109 193.38 24.9922C193.307 25.7734 193.19 26.625 193.028 27.5469L191.262 27.3906C191.434 26.5312 191.559 25.7188 191.637 24.9531C191.716 24.1823 191.762 23.4948 191.778 22.8906C191.799 22.2812 191.809 21.5625 191.809 20.7344V20.5469H183.669V19.1406H193.544V20.7344ZM195.184 29.9531H182.309V28.5312H195.184V29.9531ZM207.583 27.9844H205.833V17.7812H207.583V27.9844ZM207.974 31.6094H198.239V26.9531H199.989V30.2031H207.974V31.6094ZM199.88 18.7031C200.588 18.7031 201.232 18.8568 201.81 19.1641C202.388 19.4661 202.844 19.8854 203.177 20.4219C203.51 20.9583 203.677 21.5625 203.677 22.2344C203.677 22.9167 203.51 23.5286 203.177 24.0703C202.844 24.6068 202.388 25.026 201.81 25.3281C201.232 25.6302 200.588 25.7812 199.88 25.7812C199.166 25.7812 198.518 25.6302 197.935 25.3281C197.357 25.026 196.901 24.6068 196.568 24.0703C196.234 23.5286 196.068 22.9167 196.068 22.2344C196.068 21.5625 196.234 20.9583 196.568 20.4219C196.901 19.8854 197.357 19.4661 197.935 19.1641C198.518 18.8568 199.166 18.7031 199.88 18.7031ZM199.88 20.2188C199.479 20.2188 199.117 20.3021 198.794 20.4688C198.471 20.6354 198.219 20.8724 198.036 21.1797C197.854 21.487 197.765 21.8385 197.771 22.2344C197.765 22.6406 197.854 22.9974 198.036 23.3047C198.219 23.612 198.471 23.849 198.794 24.0156C199.117 24.1823 199.479 24.2656 199.88 24.2656C200.271 24.2656 200.625 24.1823 200.943 24.0156C201.26 23.849 201.51 23.612 201.693 23.3047C201.88 22.9974 201.974 22.6406 201.974 22.2344C201.974 21.8385 201.88 21.487 201.693 21.1797C201.51 20.8724 201.26 20.6354 200.943 20.4688C200.625 20.3021 200.271 20.2188 199.88 20.2188Z" fill="black"/>
</svg>
