<svg width="320" height="50" viewBox="0 0 320 50" fill="none" xmlns="http://www.w3.org/2000/svg">
<rect x="0.5" y="0.5" width="319" height="49" rx="7.5" fill="url(#paint0_linear_5_121)"/>
<rect x="0.5" y="0.5" width="319" height="49" rx="7.5" stroke="black"/>
<mask id="path-2-outside-1_5_121" maskUnits="userSpaceOnUse" x="101" y="15.5" width="117" height="18" fill="black">
<rect fill="white" x="101" y="15.5" width="117" height="18"/>
<path d="M112.605 21.412H110.333V24.82H112.605V25.956H103.517V24.82H105.789V21.412H103.517V20.276H112.605V21.412ZM109.197 21.412H106.925V24.82H109.197V21.412ZM108.061 27.092H109.197V29.364H113.741V30.5H102.381V29.364H108.061V27.092ZM116.822 29.364H115.686V27.092H117.958V30.5H116.822V29.364ZM116.822 31.636H115.686V30.5H116.822V31.636ZM131.273 16.868V31.636H130.137V16.868H131.273ZM126.729 25.956H124.457V24.82H126.729V19.14H127.865V29.364H126.729V25.956ZM123.321 24.82H121.049V27.092H124.457V28.228H119.913V23.684H122.185V22.548H119.913V21.412H123.321V24.82ZM140.038 19.14H141.174V22.548H140.038V19.14ZM138.902 22.548H140.038V23.684H138.902V22.548ZM142.31 22.548V23.684H141.174V22.548H142.31ZM137.766 23.684H138.902V24.82H137.766V23.684ZM143.446 23.684V24.82H142.31V23.684H143.446ZM136.63 24.82H137.766V25.956H136.63V24.82ZM144.582 24.82V25.956H143.446V24.82H144.582ZM134.358 29.364V28.228H146.854V29.364H134.358ZM157.892 21.412H153.348V22.548H157.892V23.684H153.348V24.82H157.892V25.956H152.212V20.276H157.892V21.412ZM160.164 29.364H148.804V28.228H160.164V29.364ZM175.424 16.868V25.956H174.288V16.868H175.424ZM167.472 20.276H169.744V21.412H167.472V20.276ZM166.336 21.412H167.472V23.684H166.336V21.412ZM170.88 23.684H169.744V21.412H170.88V23.684ZM169.744 24.82H167.472V23.684H169.744V24.82ZM170.88 27.092H172.016V28.228H174.288V27.092H175.424V31.636H170.88V27.092ZM174.288 29.364H172.016V30.5H174.288V29.364ZM187.604 16.868V21.412H191.012V22.548H187.604V27.092H186.468V16.868H187.604ZM184.196 21.412H183.06V22.548H181.924V21.412H178.516V20.276H184.196V21.412ZM180.788 23.684V22.548H181.924V23.684H180.788ZM180.788 24.82H179.652V23.684H180.788V24.82ZM183.06 23.684V24.82H181.924V23.684H183.06ZM179.652 25.956H178.516V24.82H179.652V25.956ZM184.196 24.82V25.956H183.06V24.82H184.196ZM184.196 28.228H186.468V29.364H184.196V28.228ZM183.06 30.5V29.364H184.196V30.5H183.06ZM187.604 30.5H186.468V29.364H187.604V30.5ZM186.468 31.636H184.196V30.5H186.468V31.636ZM200.909 31.636V16.868H202.045V23.684H205.453V24.82H202.045V31.636H200.909ZM199.773 23.684V24.82H191.821V23.684H195.229V20.276H196.365V23.684H199.773ZM195.229 25.956H197.501V27.092H195.229V25.956ZM194.093 27.092H195.229V28.228H194.093V27.092ZM198.637 28.228H197.501V27.092H198.637V28.228ZM197.501 29.364H195.229V28.228H197.501V29.364ZM216.49 16.868V31.636H215.354V16.868H216.49ZM210.81 23.684H206.266V22.548H211.946V24.82H210.81V23.684ZM210.81 24.82V27.092H209.674V24.82H210.81ZM209.674 28.228H208.538V27.092H209.674V28.228ZM208.538 29.364H207.402V28.228H208.538V29.364Z"/>
</mask>
<path d="M112.605 21.412H110.333V24.82H112.605V25.956H103.517V24.82H105.789V21.412H103.517V20.276H112.605V21.412ZM109.197 21.412H106.925V24.82H109.197V21.412ZM108.061 27.092H109.197V29.364H113.741V30.5H102.381V29.364H108.061V27.092ZM116.822 29.364H115.686V27.092H117.958V30.5H116.822V29.364ZM116.822 31.636H115.686V30.5H116.822V31.636ZM131.273 16.868V31.636H130.137V16.868H131.273ZM126.729 25.956H124.457V24.82H126.729V19.14H127.865V29.364H126.729V25.956ZM123.321 24.82H121.049V27.092H124.457V28.228H119.913V23.684H122.185V22.548H119.913V21.412H123.321V24.82ZM140.038 19.14H141.174V22.548H140.038V19.14ZM138.902 22.548H140.038V23.684H138.902V22.548ZM142.31 22.548V23.684H141.174V22.548H142.31ZM137.766 23.684H138.902V24.82H137.766V23.684ZM143.446 23.684V24.82H142.31V23.684H143.446ZM136.63 24.82H137.766V25.956H136.63V24.82ZM144.582 24.82V25.956H143.446V24.82H144.582ZM134.358 29.364V28.228H146.854V29.364H134.358ZM157.892 21.412H153.348V22.548H157.892V23.684H153.348V24.82H157.892V25.956H152.212V20.276H157.892V21.412ZM160.164 29.364H148.804V28.228H160.164V29.364ZM175.424 16.868V25.956H174.288V16.868H175.424ZM167.472 20.276H169.744V21.412H167.472V20.276ZM166.336 21.412H167.472V23.684H166.336V21.412ZM170.88 23.684H169.744V21.412H170.88V23.684ZM169.744 24.82H167.472V23.684H169.744V24.82ZM170.88 27.092H172.016V28.228H174.288V27.092H175.424V31.636H170.88V27.092ZM174.288 29.364H172.016V30.5H174.288V29.364ZM187.604 16.868V21.412H191.012V22.548H187.604V27.092H186.468V16.868H187.604ZM184.196 21.412H183.06V22.548H181.924V21.412H178.516V20.276H184.196V21.412ZM180.788 23.684V22.548H181.924V23.684H180.788ZM180.788 24.82H179.652V23.684H180.788V24.82ZM183.06 23.684V24.82H181.924V23.684H183.06ZM179.652 25.956H178.516V24.82H179.652V25.956ZM184.196 24.82V25.956H183.06V24.82H184.196ZM184.196 28.228H186.468V29.364H184.196V28.228ZM183.06 30.5V29.364H184.196V30.5H183.06ZM187.604 30.5H186.468V29.364H187.604V30.5ZM186.468 31.636H184.196V30.5H186.468V31.636ZM200.909 31.636V16.868H202.045V23.684H205.453V24.82H202.045V31.636H200.909ZM199.773 23.684V24.82H191.821V23.684H195.229V20.276H196.365V23.684H199.773ZM195.229 25.956H197.501V27.092H195.229V25.956ZM194.093 27.092H195.229V28.228H194.093V27.092ZM198.637 28.228H197.501V27.092H198.637V28.228ZM197.501 29.364H195.229V28.228H197.501V29.364ZM216.49 16.868V31.636H215.354V16.868H216.49ZM210.81 23.684H206.266V22.548H211.946V24.82H210.81V23.684ZM210.81 24.82V27.092H209.674V24.82H210.81ZM209.674 28.228H208.538V27.092H209.674V28.228ZM208.538 29.364H207.402V28.228H208.538V29.364Z" fill="black"/>
<path d="M112.605 21.412V22.412H113.605V21.412H112.605ZM110.333 21.412V20.412H109.333V21.412H110.333ZM110.333 24.82H109.333V25.82H110.333V24.82ZM112.605 24.82H113.605V23.82H112.605V24.82ZM112.605 25.956V26.956H113.605V25.956H112.605ZM103.517 25.956H102.517V26.956H103.517V25.956ZM103.517 24.82V23.82H102.517V24.82H103.517ZM105.789 24.82V25.82H106.789V24.82H105.789ZM105.789 21.412H106.789V20.412H105.789V21.412ZM103.517 21.412H102.517V22.412H103.517V21.412ZM103.517 20.276V19.276H102.517V20.276H103.517ZM112.605 20.276H113.605V19.276H112.605V20.276ZM109.197 21.412H110.197V20.412H109.197V21.412ZM106.925 21.412V20.412H105.925V21.412H106.925ZM106.925 24.82H105.925V25.82H106.925V24.82ZM109.197 24.82V25.82H110.197V24.82H109.197ZM108.061 27.092V26.092H107.061V27.092H108.061ZM109.197 27.092H110.197V26.092H109.197V27.092ZM109.197 29.364H108.197V30.364H109.197V29.364ZM113.741 29.364H114.741V28.364H113.741V29.364ZM113.741 30.5V31.5H114.741V30.5H113.741ZM102.381 30.5H101.381V31.5H102.381V30.5ZM102.381 29.364V28.364H101.381V29.364H102.381ZM108.061 29.364V30.364H109.061V29.364H108.061ZM112.605 20.412H110.333V22.412H112.605V20.412ZM109.333 21.412V24.82H111.333V21.412H109.333ZM110.333 25.82H112.605V23.82H110.333V25.82ZM111.605 24.82V25.956H113.605V24.82H111.605ZM112.605 24.956H103.517V26.956H112.605V24.956ZM104.517 25.956V24.82H102.517V25.956H104.517ZM103.517 25.82H105.789V23.82H103.517V25.82ZM106.789 24.82V21.412H104.789V24.82H106.789ZM105.789 20.412H103.517V22.412H105.789V20.412ZM104.517 21.412V20.276H102.517V21.412H104.517ZM103.517 21.276H112.605V19.276H103.517V21.276ZM111.605 20.276V21.412H113.605V20.276H111.605ZM109.197 20.412H106.925V22.412H109.197V20.412ZM105.925 21.412V24.82H107.925V21.412H105.925ZM106.925 25.82H109.197V23.82H106.925V25.82ZM110.197 24.82V21.412H108.197V24.82H110.197ZM108.061 28.092H109.197V26.092H108.061V28.092ZM108.197 27.092V29.364H110.197V27.092H108.197ZM109.197 30.364H113.741V28.364H109.197V30.364ZM112.741 29.364V30.5H114.741V29.364H112.741ZM113.741 29.5H102.381V31.5H113.741V29.5ZM103.381 30.5V29.364H101.381V30.5H103.381ZM102.381 30.364H108.061V28.364H102.381V30.364ZM109.061 29.364V27.092H107.061V29.364H109.061ZM116.822 29.364H117.822V28.364H116.822V29.364ZM115.686 29.364H114.686V30.364H115.686V29.364ZM115.686 27.092V26.092H114.686V27.092H115.686ZM117.958 27.092H118.958V26.092H117.958V27.092ZM117.958 30.5V31.5H118.958V30.5H117.958ZM116.822 30.5H115.822V31.5H116.822V30.5ZM116.822 31.636V32.636H117.822V31.636H116.822ZM115.686 31.636H114.686V32.636H115.686V31.636ZM115.686 30.5V29.5H114.686V30.5H115.686ZM116.822 30.5H117.822V29.5H116.822V30.5ZM116.822 28.364H115.686V30.364H116.822V28.364ZM116.686 29.364V27.092H114.686V29.364H116.686ZM115.686 28.092H117.958V26.092H115.686V28.092ZM116.958 27.092V30.5H118.958V27.092H116.958ZM117.958 29.5H116.822V31.5H117.958V29.5ZM117.822 30.5V29.364H115.822V30.5H117.822ZM116.822 30.636H115.686V32.636H116.822V30.636ZM116.686 31.636V30.5H114.686V31.636H116.686ZM115.686 31.5H116.822V29.5H115.686V31.5ZM115.822 30.5V31.636H117.822V30.5H115.822ZM131.273 16.868H132.273V15.868H131.273V16.868ZM131.273 31.636V32.636H132.273V31.636H131.273ZM130.137 31.636H129.137V32.636H130.137V31.636ZM130.137 16.868V15.868H129.137V16.868H130.137ZM126.729 25.956H127.729V24.956H126.729V25.956ZM124.457 25.956H123.457V26.956H124.457V25.956ZM124.457 24.82V23.82H123.457V24.82H124.457ZM126.729 24.82V25.82H127.729V24.82H126.729ZM126.729 19.14V18.14H125.729V19.14H126.729ZM127.865 19.14H128.865V18.14H127.865V19.14ZM127.865 29.364V30.364H128.865V29.364H127.865ZM126.729 29.364H125.729V30.364H126.729V29.364ZM123.321 24.82V25.82H124.321V24.82H123.321ZM121.049 24.82V23.82H120.049V24.82H121.049ZM121.049 27.092H120.049V28.092H121.049V27.092ZM124.457 27.092H125.457V26.092H124.457V27.092ZM124.457 28.228V29.228H125.457V28.228H124.457ZM119.913 28.228H118.913V29.228H119.913V28.228ZM119.913 23.684V22.684H118.913V23.684H119.913ZM122.185 23.684V24.684H123.185V23.684H122.185ZM122.185 22.548H123.185V21.548H122.185V22.548ZM119.913 22.548H118.913V23.548H119.913V22.548ZM119.913 21.412V20.412H118.913V21.412H119.913ZM123.321 21.412H124.321V20.412H123.321V21.412ZM130.273 16.868V31.636H132.273V16.868H130.273ZM131.273 30.636H130.137V32.636H131.273V30.636ZM131.137 31.636V16.868H129.137V31.636H131.137ZM130.137 17.868H131.273V15.868H130.137V17.868ZM126.729 24.956H124.457V26.956H126.729V24.956ZM125.457 25.956V24.82H123.457V25.956H125.457ZM124.457 25.82H126.729V23.82H124.457V25.82ZM127.729 24.82V19.14H125.729V24.82H127.729ZM126.729 20.14H127.865V18.14H126.729V20.14ZM126.865 19.14V29.364H128.865V19.14H126.865ZM127.865 28.364H126.729V30.364H127.865V28.364ZM127.729 29.364V25.956H125.729V29.364H127.729ZM123.321 23.82H121.049V25.82H123.321V23.82ZM120.049 24.82V27.092H122.049V24.82H120.049ZM121.049 28.092H124.457V26.092H121.049V28.092ZM123.457 27.092V28.228H125.457V27.092H123.457ZM124.457 27.228H119.913V29.228H124.457V27.228ZM120.913 28.228V23.684H118.913V28.228H120.913ZM119.913 24.684H122.185V22.684H119.913V24.684ZM123.185 23.684V22.548H121.185V23.684H123.185ZM122.185 21.548H119.913V23.548H122.185V21.548ZM120.913 22.548V21.412H118.913V22.548H120.913ZM119.913 22.412H123.321V20.412H119.913V22.412ZM122.321 21.412V24.82H124.321V21.412H122.321ZM140.038 19.14V18.14H139.038V19.14H140.038ZM141.174 19.14H142.174V18.14H141.174V19.14ZM141.174 22.548V23.548H142.174V22.548H141.174ZM140.038 22.548H139.038V23.548H140.038V22.548ZM138.902 22.548V21.548H137.902V22.548H138.902ZM140.038 22.548H141.038V21.548H140.038V22.548ZM140.038 23.684V24.684H141.038V23.684H140.038ZM138.902 23.684H137.902V24.684H138.902V23.684ZM142.31 22.548H143.31V21.548H142.31V22.548ZM142.31 23.684V24.684H143.31V23.684H142.31ZM141.174 23.684H140.174V24.684H141.174V23.684ZM141.174 22.548V21.548H140.174V22.548H141.174ZM137.766 23.684V22.684H136.766V23.684H137.766ZM138.902 23.684H139.902V22.684H138.902V23.684ZM138.902 24.82V25.82H139.902V24.82H138.902ZM137.766 24.82H136.766V25.82H137.766V24.82ZM143.446 23.684H144.446V22.684H143.446V23.684ZM143.446 24.82V25.82H144.446V24.82H143.446ZM142.31 24.82H141.31V25.82H142.31V24.82ZM142.31 23.684V22.684H141.31V23.684H142.31ZM136.63 24.82V23.82H135.63V24.82H136.63ZM137.766 24.82H138.766V23.82H137.766V24.82ZM137.766 25.956V26.956H138.766V25.956H137.766ZM136.63 25.956H135.63V26.956H136.63V25.956ZM144.582 24.82H145.582V23.82H144.582V24.82ZM144.582 25.956V26.956H145.582V25.956H144.582ZM143.446 25.956H142.446V26.956H143.446V25.956ZM143.446 24.82V23.82H142.446V24.82H143.446ZM134.358 29.364H133.358V30.364H134.358V29.364ZM134.358 28.228V27.228H133.358V28.228H134.358ZM146.854 28.228H147.854V27.228H146.854V28.228ZM146.854 29.364V30.364H147.854V29.364H146.854ZM140.038 20.14H141.174V18.14H140.038V20.14ZM140.174 19.14V22.548H142.174V19.14H140.174ZM141.174 21.548H140.038V23.548H141.174V21.548ZM141.038 22.548V19.14H139.038V22.548H141.038ZM138.902 23.548H140.038V21.548H138.902V23.548ZM139.038 22.548V23.684H141.038V22.548H139.038ZM140.038 22.684H138.902V24.684H140.038V22.684ZM139.902 23.684V22.548H137.902V23.684H139.902ZM141.31 22.548V23.684H143.31V22.548H141.31ZM142.31 22.684H141.174V24.684H142.31V22.684ZM142.174 23.684V22.548H140.174V23.684H142.174ZM141.174 23.548H142.31V21.548H141.174V23.548ZM137.766 24.684H138.902V22.684H137.766V24.684ZM137.902 23.684V24.82H139.902V23.684H137.902ZM138.902 23.82H137.766V25.82H138.902V23.82ZM138.766 24.82V23.684H136.766V24.82H138.766ZM142.446 23.684V24.82H144.446V23.684H142.446ZM143.446 23.82H142.31V25.82H143.446V23.82ZM143.31 24.82V23.684H141.31V24.82H143.31ZM142.31 24.684H143.446V22.684H142.31V24.684ZM136.63 25.82H137.766V23.82H136.63V25.82ZM136.766 24.82V25.956H138.766V24.82H136.766ZM137.766 24.956H136.63V26.956H137.766V24.956ZM137.63 25.956V24.82H135.63V25.956H137.63ZM143.582 24.82V25.956H145.582V24.82H143.582ZM144.582 24.956H143.446V26.956H144.582V24.956ZM144.446 25.956V24.82H142.446V25.956H144.446ZM143.446 25.82H144.582V23.82H143.446V25.82ZM135.358 29.364V28.228H133.358V29.364H135.358ZM134.358 29.228H146.854V27.228H134.358V29.228ZM145.854 28.228V29.364H147.854V28.228H145.854ZM146.854 28.364H134.358V30.364H146.854V28.364ZM157.892 21.412V22.412H158.892V21.412H157.892ZM153.348 21.412V20.412H152.348V21.412H153.348ZM153.348 22.548H152.348V23.548H153.348V22.548ZM157.892 22.548H158.892V21.548H157.892V22.548ZM157.892 23.684V24.684H158.892V23.684H157.892ZM153.348 23.684V22.684H152.348V23.684H153.348ZM153.348 24.82H152.348V25.82H153.348V24.82ZM157.892 24.82H158.892V23.82H157.892V24.82ZM157.892 25.956V26.956H158.892V25.956H157.892ZM152.212 25.956H151.212V26.956H152.212V25.956ZM152.212 20.276V19.276H151.212V20.276H152.212ZM157.892 20.276H158.892V19.276H157.892V20.276ZM160.164 29.364V30.364H161.164V29.364H160.164ZM148.804 29.364H147.804V30.364H148.804V29.364ZM148.804 28.228V27.228H147.804V28.228H148.804ZM160.164 28.228H161.164V27.228H160.164V28.228ZM157.892 20.412H153.348V22.412H157.892V20.412ZM152.348 21.412V22.548H154.348V21.412H152.348ZM153.348 23.548H157.892V21.548H153.348V23.548ZM156.892 22.548V23.684H158.892V22.548H156.892ZM157.892 22.684H153.348V24.684H157.892V22.684ZM152.348 23.684V24.82H154.348V23.684H152.348ZM153.348 25.82H157.892V23.82H153.348V25.82ZM156.892 24.82V25.956H158.892V24.82H156.892ZM157.892 24.956H152.212V26.956H157.892V24.956ZM153.212 25.956V20.276H151.212V25.956H153.212ZM152.212 21.276H157.892V19.276H152.212V21.276ZM156.892 20.276V21.412H158.892V20.276H156.892ZM160.164 28.364H148.804V30.364H160.164V28.364ZM149.804 29.364V28.228H147.804V29.364H149.804ZM148.804 29.228H160.164V27.228H148.804V29.228ZM159.164 28.228V29.364H161.164V28.228H159.164ZM175.424 16.868H176.424V15.868H175.424V16.868ZM175.424 25.956V26.956H176.424V25.956H175.424ZM174.288 25.956H173.288V26.956H174.288V25.956ZM174.288 16.868V15.868H173.288V16.868H174.288ZM167.472 20.276V19.276H166.472V20.276H167.472ZM169.744 20.276H170.744V19.276H169.744V20.276ZM169.744 21.412V22.412H170.744V21.412H169.744ZM167.472 21.412H166.472V22.412H167.472V21.412ZM166.336 21.412V20.412H165.336V21.412H166.336ZM167.472 21.412H168.472V20.412H167.472V21.412ZM167.472 23.684V24.684H168.472V23.684H167.472ZM166.336 23.684H165.336V24.684H166.336V23.684ZM170.88 23.684V24.684H171.88V23.684H170.88ZM169.744 23.684H168.744V24.684H169.744V23.684ZM169.744 21.412V20.412H168.744V21.412H169.744ZM170.88 21.412H171.88V20.412H170.88V21.412ZM169.744 24.82V25.82H170.744V24.82H169.744ZM167.472 24.82H166.472V25.82H167.472V24.82ZM167.472 23.684V22.684H166.472V23.684H167.472ZM169.744 23.684H170.744V22.684H169.744V23.684ZM170.88 27.092V26.092H169.88V27.092H170.88ZM172.016 27.092H173.016V26.092H172.016V27.092ZM172.016 28.228H171.016V29.228H172.016V28.228ZM174.288 28.228V29.228H175.288V28.228H174.288ZM174.288 27.092V26.092H173.288V27.092H174.288ZM175.424 27.092H176.424V26.092H175.424V27.092ZM175.424 31.636V32.636H176.424V31.636H175.424ZM170.88 31.636H169.88V32.636H170.88V31.636ZM174.288 29.364H175.288V28.364H174.288V29.364ZM172.016 29.364V28.364H171.016V29.364H172.016ZM172.016 30.5H171.016V31.5H172.016V30.5ZM174.288 30.5V31.5H175.288V30.5H174.288ZM174.424 16.868V25.956H176.424V16.868H174.424ZM175.424 24.956H174.288V26.956H175.424V24.956ZM175.288 25.956V16.868H173.288V25.956H175.288ZM174.288 17.868H175.424V15.868H174.288V17.868ZM167.472 21.276H169.744V19.276H167.472V21.276ZM168.744 20.276V21.412H170.744V20.276H168.744ZM169.744 20.412H167.472V22.412H169.744V20.412ZM168.472 21.412V20.276H166.472V21.412H168.472ZM166.336 22.412H167.472V20.412H166.336V22.412ZM166.472 21.412V23.684H168.472V21.412H166.472ZM167.472 22.684H166.336V24.684H167.472V22.684ZM167.336 23.684V21.412H165.336V23.684H167.336ZM170.88 22.684H169.744V24.684H170.88V22.684ZM170.744 23.684V21.412H168.744V23.684H170.744ZM169.744 22.412H170.88V20.412H169.744V22.412ZM169.88 21.412V23.684H171.88V21.412H169.88ZM169.744 23.82H167.472V25.82H169.744V23.82ZM168.472 24.82V23.684H166.472V24.82H168.472ZM167.472 24.684H169.744V22.684H167.472V24.684ZM168.744 23.684V24.82H170.744V23.684H168.744ZM170.88 28.092H172.016V26.092H170.88V28.092ZM171.016 27.092V28.228H173.016V27.092H171.016ZM172.016 29.228H174.288V27.228H172.016V29.228ZM175.288 28.228V27.092H173.288V28.228H175.288ZM174.288 28.092H175.424V26.092H174.288V28.092ZM174.424 27.092V31.636H176.424V27.092H174.424ZM175.424 30.636H170.88V32.636H175.424V30.636ZM171.88 31.636V27.092H169.88V31.636H171.88ZM174.288 28.364H172.016V30.364H174.288V28.364ZM171.016 29.364V30.5H173.016V29.364H171.016ZM172.016 31.5H174.288V29.5H172.016V31.5ZM175.288 30.5V29.364H173.288V30.5H175.288ZM187.604 16.868H188.604V15.868H187.604V16.868ZM187.604 21.412H186.604V22.412H187.604V21.412ZM191.012 21.412H192.012V20.412H191.012V21.412ZM191.012 22.548V23.548H192.012V22.548H191.012ZM187.604 22.548V21.548H186.604V22.548H187.604ZM187.604 27.092V28.092H188.604V27.092H187.604ZM186.468 27.092H185.468V28.092H186.468V27.092ZM186.468 16.868V15.868H185.468V16.868H186.468ZM184.196 21.412V22.412H185.196V21.412H184.196ZM183.06 21.412V20.412H182.06V21.412H183.06ZM183.06 22.548V23.548H184.06V22.548H183.06ZM181.924 22.548H180.924V23.548H181.924V22.548ZM181.924 21.412H182.924V20.412H181.924V21.412ZM178.516 21.412H177.516V22.412H178.516V21.412ZM178.516 20.276V19.276H177.516V20.276H178.516ZM184.196 20.276H185.196V19.276H184.196V20.276ZM180.788 23.684H179.788V24.684H180.788V23.684ZM180.788 22.548V21.548H179.788V22.548H180.788ZM181.924 22.548H182.924V21.548H181.924V22.548ZM181.924 23.684V24.684H182.924V23.684H181.924ZM180.788 24.82V25.82H181.788V24.82H180.788ZM179.652 24.82H178.652V25.82H179.652V24.82ZM179.652 23.684V22.684H178.652V23.684H179.652ZM180.788 23.684H181.788V22.684H180.788V23.684ZM183.06 23.684H184.06V22.684H183.06V23.684ZM183.06 24.82V25.82H184.06V24.82H183.06ZM181.924 24.82H180.924V25.82H181.924V24.82ZM181.924 23.684V22.684H180.924V23.684H181.924ZM179.652 25.956V26.956H180.652V25.956H179.652ZM178.516 25.956H177.516V26.956H178.516V25.956ZM178.516 24.82V23.82H177.516V24.82H178.516ZM179.652 24.82H180.652V23.82H179.652V24.82ZM184.196 24.82H185.196V23.82H184.196V24.82ZM184.196 25.956V26.956H185.196V25.956H184.196ZM183.06 25.956H182.06V26.956H183.06V25.956ZM183.06 24.82V23.82H182.06V24.82H183.06ZM184.196 28.228V27.228H183.196V28.228H184.196ZM186.468 28.228H187.468V27.228H186.468V28.228ZM186.468 29.364V30.364H187.468V29.364H186.468ZM184.196 29.364H183.196V30.364H184.196V29.364ZM183.06 30.5H182.06V31.5H183.06V30.5ZM183.06 29.364V28.364H182.06V29.364H183.06ZM184.196 29.364H185.196V28.364H184.196V29.364ZM184.196 30.5V31.5H185.196V30.5H184.196ZM187.604 30.5V31.5H188.604V30.5H187.604ZM186.468 30.5H185.468V31.5H186.468V30.5ZM186.468 29.364V28.364H185.468V29.364H186.468ZM187.604 29.364H188.604V28.364H187.604V29.364ZM186.468 31.636V32.636H187.468V31.636H186.468ZM184.196 31.636H183.196V32.636H184.196V31.636ZM184.196 30.5V29.5H183.196V30.5H184.196ZM186.468 30.5H187.468V29.5H186.468V30.5ZM186.604 16.868V21.412H188.604V16.868H186.604ZM187.604 22.412H191.012V20.412H187.604V22.412ZM190.012 21.412V22.548H192.012V21.412H190.012ZM191.012 21.548H187.604V23.548H191.012V21.548ZM186.604 22.548V27.092H188.604V22.548H186.604ZM187.604 26.092H186.468V28.092H187.604V26.092ZM187.468 27.092V16.868H185.468V27.092H187.468ZM186.468 17.868H187.604V15.868H186.468V17.868ZM184.196 20.412H183.06V22.412H184.196V20.412ZM182.06 21.412V22.548H184.06V21.412H182.06ZM183.06 21.548H181.924V23.548H183.06V21.548ZM182.924 22.548V21.412H180.924V22.548H182.924ZM181.924 20.412H178.516V22.412H181.924V20.412ZM179.516 21.412V20.276H177.516V21.412H179.516ZM178.516 21.276H184.196V19.276H178.516V21.276ZM183.196 20.276V21.412H185.196V20.276H183.196ZM181.788 23.684V22.548H179.788V23.684H181.788ZM180.788 23.548H181.924V21.548H180.788V23.548ZM180.924 22.548V23.684H182.924V22.548H180.924ZM181.924 22.684H180.788V24.684H181.924V22.684ZM180.788 23.82H179.652V25.82H180.788V23.82ZM180.652 24.82V23.684H178.652V24.82H180.652ZM179.652 24.684H180.788V22.684H179.652V24.684ZM179.788 23.684V24.82H181.788V23.684H179.788ZM182.06 23.684V24.82H184.06V23.684H182.06ZM183.06 23.82H181.924V25.82H183.06V23.82ZM182.924 24.82V23.684H180.924V24.82H182.924ZM181.924 24.684H183.06V22.684H181.924V24.684ZM179.652 24.956H178.516V26.956H179.652V24.956ZM179.516 25.956V24.82H177.516V25.956H179.516ZM178.516 25.82H179.652V23.82H178.516V25.82ZM178.652 24.82V25.956H180.652V24.82H178.652ZM183.196 24.82V25.956H185.196V24.82H183.196ZM184.196 24.956H183.06V26.956H184.196V24.956ZM184.06 25.956V24.82H182.06V25.956H184.06ZM183.06 25.82H184.196V23.82H183.06V25.82ZM184.196 29.228H186.468V27.228H184.196V29.228ZM185.468 28.228V29.364H187.468V28.228H185.468ZM186.468 28.364H184.196V30.364H186.468V28.364ZM185.196 29.364V28.228H183.196V29.364H185.196ZM184.06 30.5V29.364H182.06V30.5H184.06ZM183.06 30.364H184.196V28.364H183.06V30.364ZM183.196 29.364V30.5H185.196V29.364H183.196ZM184.196 29.5H183.06V31.5H184.196V29.5ZM187.604 29.5H186.468V31.5H187.604V29.5ZM187.468 30.5V29.364H185.468V30.5H187.468ZM186.468 30.364H187.604V28.364H186.468V30.364ZM186.604 29.364V30.5H188.604V29.364H186.604ZM186.468 30.636H184.196V32.636H186.468V30.636ZM185.196 31.636V30.5H183.196V31.636H185.196ZM184.196 31.5H186.468V29.5H184.196V31.5ZM185.468 30.5V31.636H187.468V30.5H185.468ZM200.909 31.636H199.909V32.636H200.909V31.636ZM200.909 16.868V15.868H199.909V16.868H200.909ZM202.045 16.868H203.045V15.868H202.045V16.868ZM202.045 23.684H201.045V24.684H202.045V23.684ZM205.453 23.684H206.453V22.684H205.453V23.684ZM205.453 24.82V25.82H206.453V24.82H205.453ZM202.045 24.82V23.82H201.045V24.82H202.045ZM202.045 31.636V32.636H203.045V31.636H202.045ZM199.773 23.684H200.773V22.684H199.773V23.684ZM199.773 24.82V25.82H200.773V24.82H199.773ZM191.821 24.82H190.821V25.82H191.821V24.82ZM191.821 23.684V22.684H190.821V23.684H191.821ZM195.229 23.684V24.684H196.229V23.684H195.229ZM195.229 20.276V19.276H194.229V20.276H195.229ZM196.365 20.276H197.365V19.276H196.365V20.276ZM196.365 23.684H195.365V24.684H196.365V23.684ZM195.229 25.956V24.956H194.229V25.956H195.229ZM197.501 25.956H198.501V24.956H197.501V25.956ZM197.501 27.092V28.092H198.501V27.092H197.501ZM195.229 27.092H194.229V28.092H195.229V27.092ZM194.093 27.092V26.092H193.093V27.092H194.093ZM195.229 27.092H196.229V26.092H195.229V27.092ZM195.229 28.228V29.228H196.229V28.228H195.229ZM194.093 28.228H193.093V29.228H194.093V28.228ZM198.637 28.228V29.228H199.637V28.228H198.637ZM197.501 28.228H196.501V29.228H197.501V28.228ZM197.501 27.092V26.092H196.501V27.092H197.501ZM198.637 27.092H199.637V26.092H198.637V27.092ZM197.501 29.364V30.364H198.501V29.364H197.501ZM195.229 29.364H194.229V30.364H195.229V29.364ZM195.229 28.228V27.228H194.229V28.228H195.229ZM197.501 28.228H198.501V27.228H197.501V28.228ZM201.909 31.636V16.868H199.909V31.636H201.909ZM200.909 17.868H202.045V15.868H200.909V17.868ZM201.045 16.868V23.684H203.045V16.868H201.045ZM202.045 24.684H205.453V22.684H202.045V24.684ZM204.453 23.684V24.82H206.453V23.684H204.453ZM205.453 23.82H202.045V25.82H205.453V23.82ZM201.045 24.82V31.636H203.045V24.82H201.045ZM202.045 30.636H200.909V32.636H202.045V30.636ZM198.773 23.684V24.82H200.773V23.684H198.773ZM199.773 23.82H191.821V25.82H199.773V23.82ZM192.821 24.82V23.684H190.821V24.82H192.821ZM191.821 24.684H195.229V22.684H191.821V24.684ZM196.229 23.684V20.276H194.229V23.684H196.229ZM195.229 21.276H196.365V19.276H195.229V21.276ZM195.365 20.276V23.684H197.365V20.276H195.365ZM196.365 24.684H199.773V22.684H196.365V24.684ZM195.229 26.956H197.501V24.956H195.229V26.956ZM196.501 25.956V27.092H198.501V25.956H196.501ZM197.501 26.092H195.229V28.092H197.501V26.092ZM196.229 27.092V25.956H194.229V27.092H196.229ZM194.093 28.092H195.229V26.092H194.093V28.092ZM194.229 27.092V28.228H196.229V27.092H194.229ZM195.229 27.228H194.093V29.228H195.229V27.228ZM195.093 28.228V27.092H193.093V28.228H195.093ZM198.637 27.228H197.501V29.228H198.637V27.228ZM198.501 28.228V27.092H196.501V28.228H198.501ZM197.501 28.092H198.637V26.092H197.501V28.092ZM197.637 27.092V28.228H199.637V27.092H197.637ZM197.501 28.364H195.229V30.364H197.501V28.364ZM196.229 29.364V28.228H194.229V29.364H196.229ZM195.229 29.228H197.501V27.228H195.229V29.228ZM196.501 28.228V29.364H198.501V28.228H196.501ZM216.49 16.868H217.49V15.868H216.49V16.868ZM216.49 31.636V32.636H217.49V31.636H216.49ZM215.354 31.636H214.354V32.636H215.354V31.636ZM215.354 16.868V15.868H214.354V16.868H215.354ZM210.81 23.684H211.81V22.684H210.81V23.684ZM206.266 23.684H205.266V24.684H206.266V23.684ZM206.266 22.548V21.548H205.266V22.548H206.266ZM211.946 22.548H212.946V21.548H211.946V22.548ZM211.946 24.82V25.82H212.946V24.82H211.946ZM210.81 24.82H209.81V25.82H210.81V24.82ZM210.81 24.82H211.81V23.82H210.81V24.82ZM210.81 27.092V28.092H211.81V27.092H210.81ZM209.674 27.092H208.674V28.092H209.674V27.092ZM209.674 24.82V23.82H208.674V24.82H209.674ZM209.674 28.228V29.228H210.674V28.228H209.674ZM208.538 28.228H207.538V29.228H208.538V28.228ZM208.538 27.092V26.092H207.538V27.092H208.538ZM209.674 27.092H210.674V26.092H209.674V27.092ZM208.538 29.364V30.364H209.538V29.364H208.538ZM207.402 29.364H206.402V30.364H207.402V29.364ZM207.402 28.228V27.228H206.402V28.228H207.402ZM208.538 28.228H209.538V27.228H208.538V28.228ZM215.49 16.868V31.636H217.49V16.868H215.49ZM216.49 30.636H215.354V32.636H216.49V30.636ZM216.354 31.636V16.868H214.354V31.636H216.354ZM215.354 17.868H216.49V15.868H215.354V17.868ZM210.81 22.684H206.266V24.684H210.81V22.684ZM207.266 23.684V22.548H205.266V23.684H207.266ZM206.266 23.548H211.946V21.548H206.266V23.548ZM210.946 22.548V24.82H212.946V22.548H210.946ZM211.946 23.82H210.81V25.82H211.946V23.82ZM211.81 24.82V23.684H209.81V24.82H211.81ZM209.81 24.82V27.092H211.81V24.82H209.81ZM210.81 26.092H209.674V28.092H210.81V26.092ZM210.674 27.092V24.82H208.674V27.092H210.674ZM209.674 25.82H210.81V23.82H209.674V25.82ZM209.674 27.228H208.538V29.228H209.674V27.228ZM209.538 28.228V27.092H207.538V28.228H209.538ZM208.538 28.092H209.674V26.092H208.538V28.092ZM208.674 27.092V28.228H210.674V27.092H208.674ZM208.538 28.364H207.402V30.364H208.538V28.364ZM208.402 29.364V28.228H206.402V29.364H208.402ZM207.402 29.228H208.538V27.228H207.402V29.228ZM207.538 28.228V29.364H209.538V28.228H207.538Z" fill="white" mask="url(#path-2-outside-1_5_121)"/>
<defs>
<linearGradient id="paint0_linear_5_121" x1="160" y1="0" x2="160" y2="50" gradientUnits="userSpaceOnUse">
<stop stop-color="white"/>
<stop offset="1" stop-color="#A2EB4E"/>
</linearGradient>
</defs>
</svg>
